<?xml version="1.0" encoding="UTF-8" standalone="no"?>
<svg
   role="img"
   viewBox="0 0 24 24"
   version="1.1"
   id="svg1"
   sodipodi:docname="apple.svg"
   inkscape:version="1.3.2 (091e20ef0f, 2023-11-25)"
   xmlns:inkscape="http://www.inkscape.org/namespaces/inkscape"
   xmlns:sodipodi="http://sodipodi.sourceforge.net/DTD/sodipodi-0.dtd"
   xmlns="http://www.w3.org/2000/svg"
   xmlns:svg="http://www.w3.org/2000/svg">
  <defs
     id="defs1" />
  <sodipodi:namedview
     id="namedview1"
     pagecolor="#ffffff"
     bordercolor="#000000"
     borderopacity="0.25"
     inkscape:showpageshadow="2"
     inkscape:pageopacity="0.0"
     inkscape:pagecheckerboard="0"
     inkscape:deskcolor="#d1d1d1"
     inkscape:zoom="61.25"
     inkscape:cx="11.991837"
     inkscape:cy="12"
     inkscape:window-width="3200"
     inkscape:window-height="1665"
     inkscape:window-x="0"
     inkscape:window-y="90"
     inkscape:window-maximized="1"
     inkscape:current-layer="svg1" />
  <title
     id="title1">Apple</title>
  <path
     d="M12.152 6.896c-.948 0-2.415-1.078-3.96-1.04-2.04.027-3.91 1.183-4.961 3.014-2.117 3.675-.546 9.103 1.519 12.09 1.013 1.454 2.208 3.09 3.792 3.039 1.52-.065 2.09-.987 3.935-.987 1.831 0 2.35.987 3.96.948 1.637-.026 2.676-1.48 3.676-2.948 1.156-1.688 1.636-3.325 1.662-3.415-.039-.013-3.182-1.221-3.22-4.857-.026-3.04 2.48-4.494 2.597-4.559-1.429-2.09-3.623-2.324-4.39-2.376-2-.156-3.675 1.09-4.61 1.09zM15.53 3.83c.843-1.012 1.4-2.427 1.245-3.83-1.207.052-2.662.805-3.532 1.818-.78.896-1.454 2.338-1.273 3.714 1.338.104 2.715-.688 3.559-1.701"
     id="path1" />
  <path
     style="fill:#ffffff;stroke-width:0.0163265"
     d="M 8.2938776,23.981791 C 7.7767536,23.939693 7.2578331,23.71002 6.7265306,23.288088 6.5342607,23.135398 6.0180078,22.614664 5.8056193,22.359184 5.4597149,21.943099 4.8670699,21.132028 4.5564715,20.649649 4.0835512,19.915174 3.6275003,19.017643 3.2765061,18.130612 2.8054724,16.940219 2.4776792,15.679903 2.3274494,14.481633 2.2204495,13.628174 2.2087553,12.665905 2.2958026,11.877551 2.4910289,10.109462 3.1833146,8.6005424 4.2957775,7.5183673 5.2527218,6.5874767 6.3742885,6.0523417 7.7061224,5.8911836 c 0.2290489,-0.027716 0.8328673,-0.02749 1.0204082,3.813e-4 0.5627618,0.083636 0.9610939,0.2044363 1.9591834,0.5941545 1.146303,0.4475901 1.410661,0.4918513 1.975705,0.3307894 0.19057,-0.054321 0.365929,-0.1177661 0.971234,-0.3513958 0.834646,-0.3221483 1.254266,-0.4554666 1.746939,-0.555024 0.400863,-0.081005 0.624372,-0.1034628 1.028571,-0.1033497 1.142601,3.197e-4 2.269644,0.3112552 3.180562,0.8774725 0.482604,0.2999821 0.988062,0.7578574 1.341887,1.2155673 0.184126,0.2381858 0.211657,0.2815009 0.185024,0.2910949 -0.04481,0.016144 -0.371749,0.2497823 -0.552371,0.3947444 -0.223961,0.1797444 -0.597543,0.5453236 -0.777987,0.7613204 -0.671587,0.8039082 -1.059758,1.6755502 -1.199675,2.6938772 -0.03994,0.290672 -0.04026,1.015006 -5.86e-4,1.330033 0.122859,0.975632 0.47071,1.839106 1.034526,2.568016 0.499521,0.645791 1.258697,1.256359 1.9795,1.592018 0.08583,0.03997 0.157941,0.07437 0.160242,0.07644 0.0087,0.0078 -0.181932,0.549982 -0.281535,0.800715 -0.472521,1.189463 -1.057974,2.210967 -1.997835,3.485843 -0.782882,1.061941 -1.489555,1.666814 -2.239099,1.916546 -0.33443,0.111424 -0.467988,0.130822 -0.897959,0.13041 -0.6559,-6.28e-4 -0.87529,-0.05822 -1.95102,-0.512121 -0.684092,-0.288653 -1.138425,-0.397111 -1.755102,-0.418976 -0.317959,-0.01128 -0.678503,0.01078 -0.956558,0.05852 -0.469876,0.08067 -0.759527,0.176609 -1.582218,0.524077 -0.7232591,0.305473 -1.3017406,0.430353 -1.8040814,0.389458 z"
     id="path7" />
  <path
     style="fill:#ffffff;stroke-width:0.0163265"
     d="m 11.991837,5.5132294 c -0.03114,-0.023722 -0.03263,-0.043687 -0.03207,-0.4302774 4.37e-4,-0.3015574 0.0077,-0.4484196 0.02823,-0.573344 0.160374,-0.9743502 0.599524,-1.9109211 1.253287,-2.6728733 0.788875,-0.91942211 2.039675,-1.62171122 3.198248,-1.7957263 0.09038,-0.01357503 0.200423,-0.02468187 0.244538,-0.02468187 h 0.08021 l 0.012,0.08571429 c 0.0211,0.15074161 0.01157,0.67937276 -0.01626,0.90204078 -0.122923,0.9834942 -0.530827,1.9330084 -1.181548,2.7503904 -0.173875,0.2184075 -0.596658,0.6349784 -0.817487,0.8054761 -0.796702,0.6151169 -1.625983,0.9398029 -2.47527,0.9691355 -0.218658,0.00755 -0.266545,0.00497 -0.293877,-0.015854 z"
     id="path8" />
</svg>
