<?xml version="1.0" encoding="UTF-8" standalone="no"?>
<svg
   role="img"
   viewBox="0 0 24 24"
   version="1.1"
   id="svg1"
   sodipodi:docname="discord.svg"
   inkscape:version="1.3.2 (091e20ef0f, 2023-11-25)"
   xmlns:inkscape="http://www.inkscape.org/namespaces/inkscape"
   xmlns:sodipodi="http://sodipodi.sourceforge.net/DTD/sodipodi-0.dtd"
   xmlns="http://www.w3.org/2000/svg"
   xmlns:svg="http://www.w3.org/2000/svg">
  <defs
     id="defs1" />
  <sodipodi:namedview
     id="namedview1"
     pagecolor="#ffffff"
     bordercolor="#000000"
     borderopacity="0.25"
     inkscape:showpageshadow="2"
     inkscape:pageopacity="0.0"
     inkscape:pagecheckerboard="0"
     inkscape:deskcolor="#d1d1d1"
     inkscape:zoom="61.25"
     inkscape:cx="11.991837"
     inkscape:cy="12"
     inkscape:window-width="3200"
     inkscape:window-height="1665"
     inkscape:window-x="0"
     inkscape:window-y="90"
     inkscape:window-maximized="1"
     inkscape:current-layer="svg1" />
  <title
     id="title1">Discord</title>
  <path
     d="M20.317 4.3698a19.7913 19.7913 0 00-4.8851-1.5152.0741.0741 0 00-.0785.0371c-.211.3753-.4447.8648-.6083 1.2495-1.8447-.2762-3.68-.2762-5.4868 0-.1636-.3933-.4058-.8742-.6177-1.2495a.077.077 0 00-.0785-.037 19.7363 19.7363 0 00-4.8852 1.515.0699.0699 0 00-.0321.0277C.5334 9.0458-.319 13.5799.0992 18.0578a.0824.0824 0 00.0312.0561c2.0528 1.5076 4.0413 2.4228 5.9929 3.0294a.0777.0777 0 00.0842-.0276c.4616-.6304.8731-1.2952 1.226-1.9942a.076.076 0 00-.0416-.1057c-.6528-.2476-1.2743-.5495-1.8722-.8923a.077.077 0 01-.0076-.1277c.1258-.0943.2517-.1923.3718-.2914a.0743.0743 0 01.0776-.0105c3.9278 1.7933 8.18 1.7933 12.0614 0a.0739.0739 0 01.0785.0095c.1202.099.246.1981.3728.2924a.077.077 0 01-.0066.1276 12.2986 12.2986 0 01-1.873.8914.0766.0766 0 00-.0407.1067c.3604.698.7719 1.3628 1.225 1.9932a.076.076 0 00.0842.0286c1.961-.6067 3.9495-1.5219 6.0023-3.0294a.077.077 0 00.0313-.0552c.5004-5.177-.8382-9.6739-3.5485-13.6604a.061.061 0 00-.0312-.0286zM8.02 15.3312c-1.1825 0-2.1569-1.0857-2.1569-2.419 0-1.3332.9555-2.4189 2.157-2.4189 1.2108 0 2.1757 1.0952 2.1568 2.419 0 1.3332-.9555 2.4189-2.1569 2.4189zm7.9748 0c-1.1825 0-2.1569-1.0857-2.1569-2.419 0-1.3332.9554-2.4189 2.1569-2.4189 1.2108 0 2.1757 1.0952 2.1568 2.419 0 1.3332-.946 2.4189-2.1568 2.4189Z"
     id="path1" />
  <path
     style="fill:#ffffff;stroke-width:0.0163265"
     d="M 5.7306122,21.005642 C 4.3678454,20.551595 3.1028023,19.977389 1.8857143,19.260439 1.2380755,18.878934 0.13666993,18.140651 0.11493635,18.073469 0.11057894,18.06 0.09598112,17.913061 0.08249674,17.746939 -0.007229,16.641552 -0.01294491,15.450471 0.06655252,14.42449 0.33307672,10.98477 1.4306288,7.8374134 3.456983,4.7020408 L 3.6627401,4.3836735 3.9783087,4.2461581 C 5.3960134,3.628365 6.7605298,3.205328 8.2526777,2.9209882 c 0.3176464,-0.06053 0.3356771,-0.062285 0.3617288,-0.035204 0.057774,0.060055 0.3652792,0.6538545 0.5373752,1.0376818 0.051584,0.1150492 0.097221,0.2126113 0.1014142,0.2168046 0.00419,0.00419 0.1427151,-0.010529 0.3078265,-0.032716 0.3468023,-0.046602 0.6805946,-0.082483 0.9940796,-0.1068566 0.121225,-0.00943 0.271837,-0.021177 0.334694,-0.026114 0.287584,-0.02259 1.147203,-0.03482 1.588239,-0.022598 0.676243,0.018741 1.206156,0.059213 1.840332,0.1405546 0.179592,0.023035 0.351075,0.042861 0.381074,0.044058 l 0.05454,0.00218 0.142103,-0.3102041 c 0.189146,-0.4128994 0.459612,-0.9379466 0.492123,-0.955346 0.01633,-0.00874 0.138882,0.00726 0.327112,0.042692 1.497577,0.2819235 2.983908,0.7449513 4.374239,1.3626794 l 0.234487,0.1041833 0.223567,0.3377659 c 1.499445,2.2653558 2.536364,4.7278632 3.043705,7.2282809 0.382793,1.886588 0.485848,3.713921 0.325611,5.773622 -0.01949,0.250544 -0.03323,0.350295 -0.05103,0.370483 -0.06365,0.07219 -0.872763,0.625477 -1.335292,0.91309 -1.382168,0.859472 -2.774274,1.50677 -4.367051,2.030584 l -0.3344,0.109974 -0.05466,-0.06309 C 17.688581,20.98434 17.258051,20.332727 17.058617,20 16.794193,19.558844 16.54454,19.094635 16.555855,19.065152 c 0.0053,-0.01384 0.13221,-0.07466 0.282001,-0.135162 0.474915,-0.191819 0.985011,-0.434425 1.415205,-0.673087 0.242483,-0.134524 0.255752,-0.145384 0.249883,-0.20454 -0.0042,-0.04276 -0.03541,-0.07409 -0.209066,-0.210131 -0.112245,-0.08793 -0.217432,-0.160042 -0.233749,-0.16024 -0.01632,-1.98e-4 -0.148562,0.05196 -0.293878,0.115903 -3.053899,1.343825 -6.312748,1.591372 -9.5049237,0.722005 -0.6351991,-0.172992 -1.5130968,-0.485722 -2.1005454,-0.748269 -0.1107541,-0.0495 -0.2145486,-0.09 -0.2306542,-0.09 -0.016106,0 -0.1249101,0.07454 -0.2417875,0.165636 -0.1986501,0.154837 -0.2121823,0.168936 -0.2075652,0.216256 0.00436,0.04473 0.021086,0.05989 0.1437148,0.130265 0.3904413,0.224077 0.9863802,0.5138 1.4367347,0.698486 0.3511721,0.144013 0.3564808,0.146519 0.3666917,0.173128 0.01096,0.02856 -0.183774,0.408552 -0.3911015,0.763167 -0.3483438,0.595813 -0.8364702,1.317186 -0.8889148,1.313676 -0.00502,-3.37e-4 -0.1927979,-0.06181 -0.4172877,-0.136605 z m 2.695218,-5.707956 c 0.7337079,-0.15228 1.3588918,-0.74242 1.6212308,-1.530355 0.104702,-0.314474 0.123365,-0.445993 0.123365,-0.869372 0,-0.335516 -0.0045,-0.404469 -0.0362,-0.549351 -0.109192,-0.499707 -0.3210727,-0.895423 -0.6640237,-1.240152 -0.4199851,-0.422162 -0.8866568,-0.618824 -1.462037,-0.616121 -0.4167004,0.002 -0.7536255,0.105931 -1.1183674,0.345127 -0.1474303,0.09668 -0.4846039,0.434892 -0.5848364,0.58663 -0.4080921,0.617798 -0.5422519,1.34338 -0.384041,2.077024 0.1886893,0.874976 0.8498826,1.592981 1.6414165,1.782453 0.2487347,0.05954 0.6157306,0.06554 0.8634952,0.01412 z m 7.9710388,0.0016 c 0.131742,-0.02611 0.363513,-0.107595 0.49638,-0.174503 0.392176,-0.197491 0.776615,-0.588863 0.983613,-1.001351 0.250072,-0.498326 0.341349,-1.132371 0.244358,-1.697427 -0.148944,-0.867723 -0.73059,-1.583151 -1.492649,-1.835967 -0.221364,-0.07344 -0.367971,-0.09653 -0.620408,-0.09771 -0.567525,-0.0027 -1.036909,0.194175 -1.453697,0.609623 -0.336483,0.335401 -0.562867,0.760951 -0.669349,1.258229 -0.04488,0.209607 -0.06212,0.667147 -0.03353,0.889732 0.07565,0.588823 0.341013,1.123197 0.75196,1.514267 0.368868,0.351026 0.823033,0.549368 1.306654,0.57064 0.117345,0.0052 0.377036,-0.0138 0.486665,-0.03553 z"
     id="path2" />
</svg>
