<?xml version="1.0" encoding="UTF-8" standalone="no"?>
<svg
   role="img"
   viewBox="0 0 24 24"
   version="1.1"
   id="svg1"
   sodipodi:docname="github.svg"
   inkscape:version="1.3.2 (091e20ef0f, 2023-11-25)"
   xmlns:inkscape="http://www.inkscape.org/namespaces/inkscape"
   xmlns:sodipodi="http://sodipodi.sourceforge.net/DTD/sodipodi-0.dtd"
   xmlns="http://www.w3.org/2000/svg"
   xmlns:svg="http://www.w3.org/2000/svg">
  <defs
     id="defs1" />
  <sodipodi:namedview
     id="namedview1"
     pagecolor="#ffffff"
     bordercolor="#000000"
     borderopacity="0.25"
     inkscape:showpageshadow="2"
     inkscape:pageopacity="0.0"
     inkscape:pagecheckerboard="0"
     inkscape:deskcolor="#d1d1d1"
     inkscape:zoom="61.25"
     inkscape:cx="11.991837"
     inkscape:cy="12"
     inkscape:window-width="3200"
     inkscape:window-height="1665"
     inkscape:window-x="0"
     inkscape:window-y="90"
     inkscape:window-maximized="1"
     inkscape:current-layer="svg1" />
  <title
     id="title1">GitHub</title>
  <path
     d="M12 .297c-6.63 0-12 5.373-12 12 0 5.303 3.438 9.8 8.205 11.385.6.113.82-.258.82-.577 0-.285-.01-1.04-.015-2.04-3.338.724-4.042-1.61-4.042-1.61C4.422 18.07 3.633 17.7 3.633 17.7c-1.087-.744.084-.729.084-.729 1.205.084 1.838 1.236 1.838 1.236 1.07 1.835 2.809 1.305 3.495.998.108-.776.417-1.305.76-1.605-2.665-.3-5.466-1.332-5.466-5.93 0-1.31.465-2.38 1.235-3.22-.135-.303-.54-1.523.105-3.176 0 0 1.005-.322 3.3 1.23.96-.267 1.98-.399 3-.405 1.02.006 2.04.138 3 .405 2.28-1.552 3.285-1.23 3.285-1.23.645 1.653.24 2.873.12 3.176.765.84 1.23 1.91 1.23 3.22 0 4.61-2.805 5.625-5.475 5.92.42.36.81 1.096.81 2.22 0 1.606-.015 2.896-.015 3.286 0 .315.21.69.825.57C20.565 22.092 24 17.592 24 12.297c0-6.627-5.373-12-12-12"
     id="path1" />
  <path
     style="fill:#ffffff;stroke-width:0.0163265"
     d="M 8.1895832,23.66399 C 8.0635607,23.630098 7.569584,23.443136 7.2734694,23.317256 6.9450376,23.177638 6.2704114,22.837331 5.9591837,22.654282 3.7339324,21.345496 1.99227,19.378942 0.98405169,17.036735 0.01847324,14.793585 -0.23770495,12.294903 0.25172395,9.8938362 0.66597195,7.8615964 1.6004002,5.9777515 2.974671,4.404266 3.3730895,3.9480927 3.9825468,3.3620083 4.4577283,2.9780847 6.226882,1.5486941 8.3119195,0.66494921 10.555102,0.3937078 c 0.531583,-0.064278 0.74504,-0.0753411 1.453061,-0.0753096 0.705788,3.135e-5 0.904722,0.010353 1.436735,0.0745449 2.190053,0.26424847 4.274113,1.1354168 6.001311,2.5086386 0.800873,0.6367411 1.53097,1.3862358 2.135553,2.1922959 1.862919,2.4837335 2.680277,5.5024684 2.327448,8.5959184 -0.453249,3.973877 -2.925747,7.497497 -6.521455,9.293892 -0.493497,0.246549 -0.983541,0.453114 -1.446802,0.60986 -0.245693,0.08313 -0.247118,0.08339 -0.420271,0.077 -0.150234,-0.0055 -0.185893,-0.01257 -0.263539,-0.0519 -0.10771,-0.05456 -0.168808,-0.109708 -0.22261,-0.200947 -0.08222,-0.139434 -0.07915,-0.0582 -0.07929,-2.095254 -1.28e-4,-1.77534 -0.0024,-1.932366 -0.02986,-2.106122 -0.103397,-0.653093 -0.313677,-1.146309 -0.638133,-1.49675 -0.05864,-0.06334 -0.101957,-0.11983 -0.09625,-0.125533 0.0057,-0.0057 0.03106,-0.01037 0.05635,-0.01037 0.173974,0 0.98504,-0.144191 1.393471,-0.24773 2.455323,-0.622438 3.73128,-2.180363 3.94946,-4.822233 0.08474,-1.026039 0.02642,-1.685667 -0.212862,-2.407588 -0.180692,-0.5451618 -0.4912,-1.0951351 -0.857861,-1.5194464 L 18.404003,8.4529592 18.455316,8.287704 C 18.57864,7.8905176 18.625913,7.5572802 18.625832,7.0857143 18.625729,6.5009977 18.529726,5.9599169 18.327115,5.4021123 l -0.05112,-0.1407448 -0.07497,-0.010276 C 17.978817,5.2206345 17.687959,5.2483515 17.34694,5.3324855 16.738027,5.4827097 16.032772,5.8145709 15.235505,6.326033 L 14.97713,6.491785 14.737545,6.4310136 C 13.518864,6.1218922 12.156967,6.0222387 10.873469,6.1482694 10.340104,6.2006423 9.5904588,6.3314315 9.1651656,6.4463141 L 8.9915558,6.4932106 8.8304717,6.3884073 C 7.9380242,5.80777 7.1069296,5.4276315 6.4244898,5.2879236 6.1903667,5.2399943 5.7242635,5.2308914 5.6843696,5.2734694 5.6337633,5.3274805 5.4783269,5.8378565 5.4133798,6.1632653 5.3526598,6.4674942 5.3270178,6.7381778 5.3267698,7.077551 5.3264338,7.5360622 5.3785938,7.8883531 5.50352,8.2713285 L 5.5627353,8.4528609 5.4345812,8.6024325 C 4.7111825,9.446727 4.3336975,10.514368 4.3349309,11.712575 c 0.00145,1.405971 0.3026916,2.644681 0.8580399,3.528241 0.2366423,0.376499 0.6272024,0.81719 0.953968,1.076417 0.8127614,0.644774 1.8963691,1.052442 3.3089639,1.244878 l 0.3293721,0.04487 -0.1101159,0.115923 c -0.2767785,0.291377 -0.4995449,0.762309 -0.590592,1.248525 -0.019337,0.103265 -0.037573,0.196401 -0.040525,0.206969 -0.00742,0.02655 -0.124792,0.07669 -0.374654,0.160041 C 8.2898039,19.46506 7.9217701,19.520676 7.5675543,19.504947 6.9645703,19.478171 6.4725056,19.25944 6.0425576,18.82706 5.8597507,18.643218 5.7473176,18.497447 5.572322,18.217391 5.4108883,17.95904 5.27423,17.789793 5.0711143,17.596663 4.7254175,17.267962 4.3327427,17.060472 3.9202389,16.988539 c -0.1803305,-0.03145 -0.2989192,-0.03193 -0.4561517,-0.0018 -0.2377984,0.0455 -0.3317954,0.132635 -0.2907742,0.269552 0.034991,0.116789 0.2971275,0.362736 0.5294279,0.496732 0.1053881,0.06079 0.3423131,0.259882 0.450825,0.378837 0.3216805,0.35264 0.587854,0.792377 0.8079241,1.334745 0.1736765,0.428031 0.3880933,0.735895 0.7089077,1.017864 0.4589172,0.403352 1.0428797,0.641047 1.7418472,0.708998 0.3893913,0.03786 1.0424622,-0.0034 1.4677398,-0.09278 0.061951,-0.01302 0.1143691,-0.0217 0.116485,-0.0193 0.00212,0.0024 0.00653,0.489267 0.00981,1.08192 l 0.00596,1.077551 -0.03939,0.09784 c -0.059488,0.147761 -0.1914542,0.272618 -0.3350011,0.316955 -0.1307599,0.04039 -0.3163517,0.04386 -0.4482707,0.0084 z"
     id="path2" />
</svg>
