<?xml version="1.0" encoding="UTF-8" standalone="no"?>
<svg
   role="img"
   viewBox="0 0 24 24"
   version="1.1"
   id="svg1"
   sodipodi:docname="instagram.svg"
   inkscape:version="1.3.2 (091e20ef0f, 2023-11-25)"
   xmlns:inkscape="http://www.inkscape.org/namespaces/inkscape"
   xmlns:sodipodi="http://sodipodi.sourceforge.net/DTD/sodipodi-0.dtd"
   xmlns="http://www.w3.org/2000/svg"
   xmlns:svg="http://www.w3.org/2000/svg">
  <defs
     id="defs1" />
  <sodipodi:namedview
     id="namedview1"
     pagecolor="#ffffff"
     bordercolor="#000000"
     borderopacity="0.25"
     inkscape:showpageshadow="2"
     inkscape:pageopacity="0.0"
     inkscape:pagecheckerboard="0"
     inkscape:deskcolor="#d1d1d1"
     inkscape:zoom="61.25"
     inkscape:cx="11.991837"
     inkscape:cy="12"
     inkscape:window-width="3200"
     inkscape:window-height="1665"
     inkscape:window-x="0"
     inkscape:window-y="90"
     inkscape:window-maximized="1"
     inkscape:current-layer="svg1" />
  <title
     id="title1">Instagram</title>
  <path
     d="M7.0301.084c-1.2768.0602-2.1487.264-2.911.5634-.7888.3075-1.4575.72-2.1228 1.3877-.6652.6677-1.075 1.3368-1.3802 2.127-.2954.7638-.4956 1.6365-.552 2.914-.0564 1.2775-.0689 1.6882-.0626 4.947.0062 3.2586.0206 3.6671.0825 4.9473.061 1.2765.264 2.1482.5635 2.9107.308.7889.72 1.4573 1.388 2.1228.6679.6655 1.3365 1.0743 2.1285 1.38.7632.295 1.6361.4961 2.9134.552 1.2773.056 1.6884.069 4.9462.0627 3.2578-.0062 3.668-.0207 4.9478-.0814 1.28-.0607 2.147-.2652 2.9098-.5633.7889-.3086 1.4578-.72 2.1228-1.3881.665-.6682 1.0745-1.3378 1.3795-2.1284.2957-.7632.4966-1.636.552-2.9124.056-1.2809.0692-1.6898.063-4.948-.0063-3.2583-.021-3.6668-.0817-4.9465-.0607-1.2797-.264-2.1487-.5633-2.9117-.3084-.7889-.72-1.4568-1.3876-2.1228C21.2982 1.33 20.628.9208 19.8378.6165 19.074.321 18.2017.1197 16.9244.0645 15.6471.0093 15.236-.005 11.977.0014 8.718.0076 8.31.0215 7.0301.0839m.1402 21.6932c-1.17-.0509-1.8053-.2453-2.2287-.408-.5606-.216-.96-.4771-1.3819-.895-.422-.4178-.6811-.8186-.9-1.378-.1644-.4234-.3624-1.058-.4171-2.228-.0595-1.2645-.072-1.6442-.079-4.848-.007-3.2037.0053-3.583.0607-4.848.05-1.169.2456-1.805.408-2.2282.216-.5613.4762-.96.895-1.3816.4188-.4217.8184-.6814 1.3783-.9003.423-.1651 1.0575-.3614 2.227-.4171 1.2655-.06 1.6447-.072 4.848-.079 3.2033-.007 3.5835.005 4.8495.0608 1.169.0508 1.8053.2445 2.228.408.5608.216.96.4754 1.3816.895.4217.4194.6816.8176.9005 1.3787.1653.4217.3617 1.056.4169 2.2263.0602 1.2655.0739 1.645.0796 4.848.0058 3.203-.0055 3.5834-.061 4.848-.051 1.17-.245 1.8055-.408 2.2294-.216.5604-.4763.96-.8954 1.3814-.419.4215-.8181.6811-1.3783.9-.4224.1649-1.0577.3617-2.2262.4174-1.2656.0595-1.6448.072-4.8493.079-3.2045.007-3.5825-.006-4.848-.0608M16.953 5.5864A1.44 1.44 0 1 0 18.39 4.144a1.44 1.44 0 0 0-1.437 1.4424M5.8385 12.012c.0067 3.4032 2.7706 6.1557 6.173 6.1493 3.4026-.0065 6.157-2.7701 6.1506-6.1733-.0065-3.4032-2.771-6.1565-6.174-6.1498-3.403.0067-6.156 2.771-6.1496 6.1738M8 12.0077a4 4 0 1 1 4.008 3.9921A3.9996 3.9996 0 0 1 8 12.0077"
     id="path1" />
  <path
     style="fill:#ffffff;stroke-width:0.0163265"
     d="M 8.2857143,23.972829 C 6.6823566,23.92432 6.1079944,23.876276 5.3877551,23.730415 4.440186,23.538518 3.5345304,23.162553 2.8460625,22.675283 2.3148944,22.299345 1.7802852,21.770134 1.3877551,21.2317 0.67854903,20.258882 0.24995727,18.972984 0.12288616,17.436735 0.09791308,17.134818 0.06113496,16.353704 0.03832673,15.640816 0.00952602,14.740629 0.00859184,8.5910393 0.03714865,7.8857143 0.08154044,6.7892811 0.10774505,6.4151234 0.17321913,5.9428571 0.33343701,4.7872015 0.70754681,3.7587038 1.2718743,2.922449 1.6544599,2.3555104 2.3296057,1.6773045 2.8794415,1.3075958 3.7999407,0.68865349 4.876242,0.3129838 6.155102,0.16426684 6.6940387,0.10159461 7.5076382,0.05892602 8.6612245,0.03283519 9.5791887,0.01207346 15.227537,0.01189403 15.877551,0.03260595 c 1.378513,0.04392466 1.943145,0.08869141 2.571429,0.20387539 1.071515,0.19644217 2.066836,0.60950957 2.8178,1.16941286 0.497272,0.3707559 0.97969,0.8580692 1.339693,1.3532895 0.618231,0.8504364 1.037101,1.9603913 1.204521,3.1918367 0.07145,0.5255612 0.111244,1.1650069 0.150872,2.4244898 0.02848,0.9050072 0.02926,7.0242128 9.85e-4,7.7224488 -0.06499,1.605156 -0.120296,2.108596 -0.31632,2.879342 -0.248521,0.977145 -0.658828,1.816403 -1.233413,2.52287 -0.180746,0.222232 -0.699685,0.739756 -0.912049,0.909561 -0.666218,0.53271 -1.397565,0.903277 -2.284742,1.157662 -0.929189,0.266431 -1.763297,0.352232 -3.885715,0.399703 -0.606204,0.01356 -6.6243545,0.01845 -7.0448977,0.0057 z m 6.5306127,-2.144262 c 1.728168,-0.02684 2.557283,-0.07385 3.191836,-0.181008 0.845669,-0.142803 1.597013,-0.457933 2.143151,-0.898886 0.167308,-0.135084 0.491368,-0.461466 0.629876,-0.634387 0.469331,-0.58594 0.776642,-1.364062 0.915617,-2.318368 0.119342,-0.819502 0.159172,-2.515626 0.146071,-6.220408 C 21.829007,7.6527383 21.780568,6.5528996 21.582854,5.6713549 21.458699,5.1177847 21.225773,4.542158 20.970705,4.1585608 20.681909,3.7242359 20.262718,3.3036305 19.828571,3.0125704 19.644723,2.8893151 19.26288,2.7009853 19.002126,2.6049559 17.899327,2.1988253 16.961159,2.1417649 11.706122,2.1612054 8.6965109,2.1723391 7.7935765,2.1896539 6.8653061,2.2540335 5.5601807,2.3445496 4.5842,2.6662887 3.8655607,3.2429215 3.6825553,3.3897641 3.4131234,3.6569012 3.2483466,3.8548789 2.7200939,4.4895688 2.3933176,5.3619353 2.2705169,6.4653061 2.1706264,7.3628258 2.1408397,9.1719886 2.1633971,12.971429 c 0.014545,2.449844 0.02165,2.859641 0.065395,3.771428 0.048,1.000501 0.1596178,1.646985 0.3925824,2.273819 0.2222234,0.597933 0.492041,1.022957 0.9200506,1.44929 0.4396981,0.437974 0.8621128,0.710174 1.438167,0.926743 0.7860611,0.295518 1.4817915,0.385918 3.3469388,0.434889 0.6880751,0.01807 5.3440181,0.01876 6.4897961,9.69e-4 z"
     id="path2" />
  <path
     style="fill:#ffffff;stroke-width:0.0163265"
     d="M 11.657143,18.145408 C 10.914589,18.088433 10.363622,17.965981 9.7390064,17.719102 7.8374018,16.967494 6.4354136,15.322155 5.9926305,13.322449 5.8898591,12.85831 5.8530885,12.509833 5.8530885,12 c 0,-0.511687 0.036608,-0.857047 0.1408943,-1.329203 C 6.3571656,9.026489 7.392279,7.5908725 8.8408163,6.7224744 10.782185,5.5586237 13.218197,5.5566503 15.15102,6.7173626 c 1.516893,0.9109349 2.568503,2.4143594 2.895678,4.1397804 0.07774,0.40995 0.09208,0.587967 0.09208,1.142857 0,0.55489 -0.01434,0.732907 -0.09208,1.142857 -0.392056,2.067581 -1.826902,3.80203 -3.785784,4.576276 -0.52407,0.207139 -1.005973,0.328153 -1.5752,0.395561 -0.203914,0.02415 -0.859146,0.04371 -1.028571,0.03071 z m 1.020408,-2.194009 c 0.848437,-0.150695 1.607407,-0.553537 2.204082,-1.169871 0.590126,-0.609569 0.955282,-1.356442 1.088529,-2.226426 0.04006,-0.261561 0.04006,-0.848643 0,-1.110204 C 15.836163,10.570003 15.471136,9.8262576 14.873469,9.2103776 14.232969,8.550358 13.422156,8.1438344 12.509368,8.0250692 12.256073,7.9921123 11.743755,7.992126 11.490632,8.0250965 10.86695,8.106334 10.28825,8.3236335 9.7632653,8.6737148 9.5544467,8.8129636 9.4146343,8.9276816 9.2022429,9.1340416 8.56245,9.7556661 8.1700483,10.52918 8.0299509,11.444898 c -0.040323,0.263561 -0.040509,0.850192 -3.53e-4,1.110204 0.1153618,0.74697 0.4097497,1.419627 0.8681531,1.983674 0.137145,0.168751 0.4371009,0.465577 0.6042898,0.597984 0.5710642,0.452261 1.2488762,0.737836 1.9918372,0.8392 0.259798,0.03544 0.923349,0.02168 1.183673,-0.02456 z"
     id="path3" />
  <path
     style="fill:#ffffff;stroke-width:0.0163265"
     d="M 18.261224,7.0103156 C 17.620131,6.9330578 17.120007,6.478818 16.987071,5.8530612 c -0.02919,-0.1373965 -0.02589,-0.4331921 0.0063,-0.5671398 0.09971,-0.4146156 0.353367,-0.754861 0.712732,-0.9560223 0.365481,-0.2045845 0.832397,-0.2303609 1.226791,-0.067726 0.332947,0.1372962 0.616021,0.4106228 0.764572,0.7382455 0.162237,0.3578073 0.162805,0.8074493 0.0015,1.1632688 -0.182246,0.4019361 -0.548592,0.7074981 -0.968471,0.8077835 -0.135864,0.03245 -0.364955,0.051414 -0.469259,0.038844 z"
     id="path4" />
</svg>
