<?xml version="1.0" encoding="UTF-8" standalone="no"?>
<svg
   role="img"
   viewBox="0 0 24 24"
   version="1.1"
   id="svg1"
   sodipodi:docname="linux.svg"
   inkscape:version="1.3.2 (091e20ef0f, 2023-11-25)"
   xmlns:inkscape="http://www.inkscape.org/namespaces/inkscape"
   xmlns:sodipodi="http://sodipodi.sourceforge.net/DTD/sodipodi-0.dtd"
   xmlns="http://www.w3.org/2000/svg"
   xmlns:svg="http://www.w3.org/2000/svg">
  <defs
     id="defs1" />
  <sodipodi:namedview
     id="namedview1"
     pagecolor="#ffffff"
     bordercolor="#000000"
     borderopacity="0.25"
     inkscape:showpageshadow="2"
     inkscape:pageopacity="0.0"
     inkscape:pagecheckerboard="0"
     inkscape:deskcolor="#d1d1d1"
     inkscape:zoom="61.25"
     inkscape:cx="11.991837"
     inkscape:cy="12"
     inkscape:window-width="3200"
     inkscape:window-height="1665"
     inkscape:window-x="0"
     inkscape:window-y="90"
     inkscape:window-maximized="1"
     inkscape:current-layer="svg1" />
  <title
     id="title1">Linux</title>
  <path
     d="M12.504 0c-.155 0-.315.008-.48.021-4.226.333-3.105 4.807-3.17 6.298-.076 1.092-.3 1.953-1.05 3.02-.885 1.051-2.127 2.75-2.716 4.521-.278.832-.41 1.684-.287 2.489a.424.424 0 00-.11.135c-.26.268-.45.6-.663.839-.199.199-.485.267-.797.4-.313.136-.658.269-.864.68-.09.189-.136.394-.132.602 0 .199.027.4.055.536.058.399.116.728.04.97-.249.68-.28 1.145-.106 1.484.174.334.535.47.94.601.81.2 1.91.135 2.774.6.926.466 1.866.67 2.616.47.526-.116.97-.464 1.208-.946.587-.003 1.23-.269 2.26-.334.699-.058 1.574.267 2.577.2.025.134.063.198.114.333l.003.003c.391.778 1.113 1.132 1.884 1.071.771-.06 1.592-.536 2.257-1.306.631-.765 1.683-1.084 2.378-1.503.348-.199.629-.469.649-.853.023-.4-.2-.811-.714-1.376v-.097l-.003-.003c-.17-.2-.25-.535-.338-.926-.085-.401-.182-.786-.492-1.046h-.003c-.059-.054-.123-.067-.188-.135a.357.357 0 00-.19-.064c.431-1.278.264-2.55-.173-3.694-.533-1.41-1.465-2.638-2.175-3.483-.796-1.005-1.576-1.957-1.56-3.368.026-2.152.236-6.133-3.544-6.139zm.529 3.405h.013c.213 0 .396.062.584.198.19.135.33.332.438.533.105.259.158.459.166.724 0-.02.006-.04.006-.06v.105a.086.086 0 01-.004-.021l-.004-.024a1.807 1.807 0 01-.15.706.953.953 0 01-.213.335.71.71 0 00-.088-.042c-.104-.045-.198-.064-.284-.133a1.312 1.312 0 00-.22-.066c.05-.06.146-.133.183-.198.053-.128.082-.264.088-.402v-.02a1.21 1.21 0 00-.061-.4c-.045-.134-.101-.2-.183-.333-.084-.066-.167-.132-.267-.132h-.016c-.093 0-.176.03-.262.132a.8.8 0 00-.205.334 1.18 1.18 0 00-.09.4v.019c.002.089.008.179.02.267-.193-.067-.438-.135-.607-.202a1.635 1.635 0 01-.018-.2v-.02a1.772 1.772 0 01.15-.768c.082-.22.232-.406.43-.533a.985.985 0 01.594-.2zm-2.962.059h.036c.142 0 .27.048.399.135.146.129.264.288.344.465.09.199.14.4.153.667v.004c.007.134.006.2-.002.266v.08c-.03.007-.056.018-.083.024-.152.055-.274.135-.393.2.012-.09.013-.18.003-.267v-.015c-.012-.133-.04-.2-.082-.333a.613.613 0 00-.166-.267.248.248 0 00-.183-.064h-.021c-.071.006-.13.04-.186.132a.552.552 0 00-.12.27.944.944 0 00-.023.33v.015c.012.135.037.2.08.334.046.134.098.2.166.268.01.009.02.018.034.024-.07.057-.117.07-.176.136a.304.304 0 01-.131.068 2.62 2.62 0 01-.275-.402 1.772 1.772 0 01-.155-.667 1.759 1.759 0 01.08-.668 1.43 1.43 0 01.283-.535c.128-.133.26-.2.418-.2zm1.37 1.706c.332 0 .733.065 1.216.399.293.2.523.269 1.052.468h.003c.255.136.405.266.478.399v-.131a.571.571 0 01.016.47c-.123.31-.516.643-1.063.842v.002c-.268.135-.501.333-.775.465-.276.135-.588.292-1.012.267a1.139 1.139 0 01-.448-.067 3.566 3.566 0 01-.322-.198c-.195-.135-.363-.332-.612-.465v-.005h-.005c-.4-.246-.616-.512-.686-.71-.07-.268-.005-.47.193-.6.224-.135.38-.271.483-.336.104-.074.143-.102.176-.131h.002v-.003c.169-.202.436-.47.839-.601.139-.036.294-.065.466-.065zm2.8 2.142c.358 1.417 1.196 3.475 1.735 4.473.286.534.855 1.659 1.102 3.024.156-.005.33.018.513.064.646-1.671-.546-3.467-1.089-3.966-.22-.2-.232-.335-.123-.335.59.534 1.365 1.572 1.646 2.757.13.535.16 1.104.021 1.67.067.028.135.06.205.067 1.032.534 1.413.938 1.23 1.537v-.043c-.06-.003-.12 0-.18 0h-.016c.151-.467-.182-.825-1.065-1.224-.915-.4-1.646-.336-1.77.465-.008.043-.013.066-.018.135-.068.023-.139.053-.209.064-.43.268-.662.669-.793 1.187-.13.533-.17 1.156-.205 1.869v.003c-.02.334-.17.838-.319 1.35-1.5 1.072-3.58 1.538-5.348.334a2.645 2.645 0 00-.402-.533 1.45 1.45 0 00-.275-.333c.182 0 .338-.03.465-.067a.615.615 0 00.314-.334c.108-.267 0-.697-.345-1.163-.345-.467-.931-.995-1.788-1.521-.63-.4-.986-.87-1.15-1.396-.165-.534-.143-1.085-.015-1.645.245-1.07.873-2.11 1.274-2.763.107-.065.037.135-.408.974-.396.751-1.14 2.497-.122 3.854a8.123 8.123 0 01.647-2.876c.564-1.278 1.743-3.504 1.836-5.268.048.036.217.135.289.202.218.133.38.333.59.465.21.201.477.335.876.335.039.003.075.006.11.006.412 0 .73-.134.997-.268.29-.134.52-.334.74-.4h.005c.467-.135.835-.402 1.044-.7zm2.185 8.958c.037.6.343 1.245.882 1.377.588.134 1.434-.333 1.791-.765l.211-.01c.315-.007.577.01.847.268l.003.003c.208.199.305.53.391.876.085.4.154.78.409 1.066.486.527.645.906.636 1.14l.003-.007v.018l-.003-.012c-.015.262-.185.396-.498.595-.63.401-1.746.712-2.457 1.57-.618.737-1.37 1.14-2.036 1.191-.664.053-1.237-.2-1.574-.898l-.005-.003c-.21-.4-.12-1.025.056-1.69.176-.668.428-1.344.463-1.897.037-.714.076-1.335.195-1.814.12-.465.308-.797.641-.984l.045-.022zm-10.814.049h.01c.053 0 .105.005.157.014.376.055.706.333 1.023.752l.91 1.664.003.003c.243.533.754 1.064 1.189 1.637.434.598.77 1.131.729 1.57v.006c-.057.744-.48 1.148-1.125 1.294-.645.135-1.52.002-2.395-.464-.968-.536-2.118-.469-2.857-.602-.369-.066-.61-.2-.723-.4-.11-.2-.113-.602.123-1.23v-.004l.002-.003c.117-.334.03-.752-.027-1.118-.055-.401-.083-.71.043-.94.16-.334.396-.4.69-.533.294-.135.64-.202.915-.47h.002v-.002c.256-.268.445-.601.668-.838.19-.201.38-.336.663-.336zm7.159-9.074c-.435.201-.945.535-1.488.535-.542 0-.97-.267-1.28-.466-.154-.134-.28-.268-.373-.335-.164-.134-.144-.333-.074-.333.109.016.129.134.199.2.096.066.215.2.36.333.292.2.68.467 1.167.467.485 0 1.053-.267 1.398-.466.195-.135.445-.334.648-.467.156-.136.149-.267.279-.267.128.016.034.134-.147.332a8.097 8.097 0 01-.69.468zm-1.082-1.583V5.64c-.006-.02.013-.042.029-.05.074-.043.18-.027.26.004.063 0 .16.067.15.135-.006.049-.085.066-.135.066-.055 0-.092-.043-.141-.068-.052-.018-.146-.008-.163-.065zm-.551 0c-.02.058-.113.049-.166.066-.047.025-.086.068-.14.068-.05 0-.13-.02-.136-.068-.01-.066.088-.133.15-.133.08-.031.184-.047.259-.005.019.009.036.03.03.05v.02h.003z"
     id="path1" />
  <path
     style="fill:#ffffff;stroke-width:0.0163265"
     d="M 16.040816,23.952625 C 15.866739,23.914129 15.661039,23.838864 15.520512,23.762247 15.090006,23.527531 14.733628,23.07241 14.610429,22.6 c -0.004,-0.01541 -0.08049,-0.02045 -0.311957,-0.02058 -0.348897,-1.99e-4 -0.561073,-0.02027 -1.196431,-0.113162 -0.246939,-0.0361 -0.540817,-0.07374 -0.653061,-0.08363 -0.388299,-0.03421 -0.961332,0.02778 -1.745895,0.188883 -0.42021,0.08628 -0.628055,0.121024 -0.7937883,0.132672 l -0.1526458,0.01073 -0.061714,0.105528 C 9.5977656,22.986596 9.4312862,23.180584 9.2809688,23.302811 8.8990286,23.61338 8.3031786,23.773909 7.7175213,23.724021 7.1533066,23.675961 6.6398624,23.521211 5.9522522,23.191979 5.4379856,22.945745 5.0892333,22.857822 4.1714286,22.743024 3.4117521,22.648003 3.3035632,22.628963 3.044898,22.544764 2.3932603,22.332648 2.1303674,22.031706 2.1292602,21.496602 c -5.45e-4,-0.26334 0.042928,-0.48399 0.1694124,-0.859867 0.068203,-0.202679 0.068664,-0.205653 0.067224,-0.432653 -0.00101,-0.159723 -0.014644,-0.314634 -0.045253,-0.514286 -0.071893,-0.468939 -0.079966,-0.554545 -0.070831,-0.75102 0.018685,-0.401872 0.1727393,-0.709909 0.4668036,-0.933398 0.1322456,-0.100506 0.3401833,-0.2023 0.742678,-0.363572 0.3369261,-0.135001 0.4603416,-0.202018 0.56529,-0.306967 0.03804,-0.03804 0.1648519,-0.197819 0.2818036,-0.355063 0.1169515,-0.157244 0.2511334,-0.330145 0.298182,-0.384223 0.047048,-0.05408 0.1122271,-0.133282 0.1448412,-0.176009 L 4.808709,16.341864 4.788583,16.191342 C 4.7595381,15.974112 4.7650622,15.400931 4.7986882,15.142857 4.9415256,14.046604 5.417304,12.839984 6.2232984,11.529907 6.612496,10.8973 7.1274149,10.178029 7.6282764,9.5673469 8.2644947,8.7916294 8.6473659,7.9374127 8.7909482,6.9733313 8.8677732,6.4574918 8.8741068,6.0229678 8.8167962,5.2 8.7145275,3.7314385 8.8063572,2.7256343 9.1134278,1.9510204 9.621062,0.67046537 10.774337,0.01199326 12.504438,0.01489422 c 0.677621,0.0011362 1.167554,0.10488192 1.666991,0.35299332 0.272084,0.13516704 0.477786,0.28262399 0.693897,0.49741858 0.699502,0.69524238 1.06224,1.74908168 1.160469,3.37142858 0.01033,0.1706122 0.02017,0.7657143 0.02186,1.322449 0.003,0.978325 0.0043,1.0190836 0.04054,1.2163265 0.154828,0.8434524 0.49929,1.4740939 1.451342,2.6571202 0.659848,0.8199296 0.869603,1.0973146 1.172883,1.5510466 0.359198,0.53739 0.720005,1.19225 0.933272,1.693874 0.595611,1.400939 0.708421,2.689668 0.339791,3.881757 l -0.03916,0.126654 0.04316,0.009 c 0.119806,0.02508 0.365553,0.19986 0.480498,0.341736 0.164527,0.203076 0.224751,0.367209 0.40136,1.093877 0.08405,0.345819 0.151229,0.531009 0.241061,0.6645 0.03022,0.0449 0.05494,0.101366 0.05494,0.125479 0,0.03126 0.03799,0.08818 0.132374,0.198359 0.278883,0.325538 0.468292,0.637022 0.536049,0.88153 0.04494,0.162181 0.04551,0.382343 0.0013,0.524331 -0.06746,0.216877 -0.264051,0.438009 -0.546008,0.614151 -0.08154,0.05094 -0.427434,0.232878 -0.768658,0.404315 -1.071842,0.538509 -1.163775,0.604449 -1.869388,1.340857 -0.341128,0.356016 -0.714211,0.634806 -1.100689,0.822504 -0.400987,0.194743 -0.665236,0.260903 -1.078903,0.270126 -0.244669,0.0055 -0.317114,0.0014 -0.432653,-0.02414 z m 0.830205,-0.401786 c 0.433534,-0.09515 0.882147,-0.324395 1.267755,-0.647823 0.147753,-0.123929 0.330504,-0.30793 0.605781,-0.609925 0.367103,-0.402733 0.741285,-0.651045 1.648228,-1.093783 0.494386,-0.241342 0.735075,-0.376756 0.931785,-0.524226 0.299962,-0.224875 0.35222,-0.471658 0.179185,-0.846171 -0.09738,-0.210762 -0.233584,-0.404549 -0.502026,-0.714261 -0.201078,-0.231992 -0.304446,-0.464741 -0.397153,-0.894242 -0.141662,-0.656312 -0.27852,-0.964308 -0.508664,-1.144726 -0.207138,-0.162384 -0.318217,-0.195342 -0.694686,-0.206113 l -0.288571,-0.0083 -0.152689,0.145459 c -0.518655,0.494097 -1.291409,0.766201 -1.723757,0.606977 -0.413641,-0.152337 -0.721817,-0.640464 -0.794866,-1.259003 l -0.01113,-0.09423 -0.08063,0.04388 c -0.11718,0.06378 -0.263423,0.202727 -0.349258,0.331842 -0.26758,0.402498 -0.380257,0.954908 -0.449674,2.204578 -0.0301,0.541852 -0.05883,0.683364 -0.33143,1.632653 -0.266474,0.927943 -0.332194,1.277847 -0.315846,1.681633 0.01033,0.255269 0.03604,0.365117 0.127983,0.546939 0.250224,0.494826 0.601082,0.772127 1.096663,0.866748 0.15113,0.02886 0.576571,0.01858 0.742995,-0.01795 z M 8.4734694,23.27447 c 0.6103453,-0.135639 0.9734295,-0.456823 1.1136127,-0.985102 0.059654,-0.224805 0.063065,-0.542945 0.00774,-0.722021 C 9.4841029,21.208953 9.1368469,20.658376 8.6011334,19.991837 8.0655096,19.325411 7.899606,19.096867 7.783367,18.865306 7.6381304,18.57598 6.8035469,17.072514 6.7456584,16.995918 6.6354762,16.850131 6.3765398,16.600516 6.246511,16.514738 6.024822,16.368496 5.7954687,16.301077 5.5673469,16.315096 c -0.3198217,0.01966 -0.5232778,0.172445 -0.8965582,0.673293 -0.4482243,0.601402 -0.5066721,0.648556 -1.0894734,0.878947 -0.5310124,0.209916 -0.6911977,0.301962 -0.8171025,0.469526 -0.082019,0.109158 -0.1177705,0.179007 -0.149556,0.292201 -0.058909,0.209783 -0.051846,0.388016 0.040419,1.019917 0.042846,0.293441 0.048899,0.374623 0.042,0.563265 -0.00772,0.211027 -0.011559,0.23089 -0.090228,0.466659 -0.147789,0.442918 -0.1879608,0.793796 -0.1171345,1.023106 0.080556,0.260808 0.3646946,0.435948 0.8245729,0.508254 0.089796,0.01412 0.3910204,0.0481 0.6693878,0.07551 0.7948697,0.07827 1.1784044,0.146135 1.5622565,0.276418 0.2245769,0.07622 0.2535188,0.08878 0.6336618,0.274999 0.1661225,0.08138 0.3713914,0.174826 0.456153,0.207668 0.2922467,0.113233 0.699721,0.216448 0.9969083,0.252518 0.1801214,0.02186 0.7035324,0.0076 0.8408163,-0.02291 z m 3.6356176,-1.821285 c 0.909128,-0.0589 1.773547,-0.35784 2.592954,-0.896716 0.103265,-0.06791 0.193619,-0.127878 0.200786,-0.133259 0.02197,-0.01649 0.22112,-0.74336 0.273011,-0.996449 0.03878,-0.189148 0.05401,-0.326077 0.07353,-0.661225 0.05049,-0.866663 0.115703,-1.346354 0.236123,-1.736965 0.155765,-0.505263 0.492649,-0.928306 0.830877,-1.043376 l 0.124443,-0.04234 0.01209,-0.09732 c 0.102699,-0.826838 0.852988,-0.968212 2.012402,-0.379188 0.404446,0.205472 0.694283,0.442659 0.789783,0.646314 0.03574,0.07622 0.04287,0.114493 0.04287,0.230198 0,0.07633 -0.0056,0.15898 -0.01256,0.183674 l -0.01256,0.0449 h 0.09827 c 0.06555,0 0.09827,0.0065 0.09827,0.01959 0,0.01278 0.0056,0.01403 0.01598,0.0036 0.0088,-0.0088 0.02489,-0.07325 0.03577,-0.143252 0.06327,-0.406963 -0.170741,-0.741266 -0.786444,-1.123501 -0.256616,-0.159309 -0.437834,-0.253588 -0.559917,-0.291295 -0.06021,-0.0186 -0.109471,-0.04013 -0.109471,-0.04786 0,-0.0077 0.01571,-0.101104 0.03491,-0.207507 0.04717,-0.261407 0.05137,-0.789419 0.0085,-1.066928 -0.08268,-0.535105 -0.244576,-1.019603 -0.516275,-1.545002 -0.276502,-0.534689 -0.614273,-1.004033 -1.035361,-1.438672 -0.158849,-0.16396 -0.195952,-0.187245 -0.235441,-0.147755 -0.05465,0.05465 -0.0058,0.143032 0.192171,0.347755 0.200727,0.207555 0.329399,0.369863 0.506266,0.63861 0.612231,0.930282 0.866726,1.976351 0.692662,2.847105 -0.03056,0.152855 -0.11784,0.440817 -0.133615,0.440813 -0.0065,-2e-6 -0.06936,-0.01102 -0.139737,-0.02449 -0.07038,-0.01347 -0.178228,-0.02449 -0.239659,-0.02449 h -0.111692 l -0.01879,-0.09388 C 16.928291,14.010215 16.710658,13.332287 16.397039,12.620396 16.343639,12.499172 16.1763,12.157539 16.025185,11.861212 15.553268,10.935817 15.246634,10.237811 14.870454,9.2326411 14.646444,8.6340752 14.368487,7.782141 14.284508,7.4367227 c -0.01528,-0.062857 -0.03293,-0.1200736 -0.03921,-0.1271478 -0.0063,-0.00707 -0.03245,0.017465 -0.05813,0.054532 -0.02569,0.037067 -0.09806,0.1149443 -0.160835,0.1730615 -0.214604,0.1986902 -0.489528,0.3560128 -0.792669,0.4535974 -0.164282,0.052884 -0.217065,0.078958 -0.441823,0.2182537 -0.36919,0.228808 -0.741026,0.3839499 -1.049412,0.4378471 -0.199612,0.034887 -0.569358,0.022965 -0.74885,-0.024145 C 10.865097,8.5890129 10.716277,8.5207061 10.62637,8.4541912 10.483777,8.3486973 10.293056,8.19621 10.181694,8.0986596 10.011558,7.9496242 9.6313064,7.6734694 9.5962281,7.6734694 c -0.00755,0 -0.022934,0.096576 -0.034187,0.2146121 C 9.5174377,8.3559438 9.3839944,8.933521 9.1759505,9.5591837 8.9236637,10.317901 8.6977709,10.863074 8.09171,12.175905 7.6635714,13.103327 7.5579931,13.366386 7.4144158,13.863451 7.2512723,14.428256 7.1109907,15.245087 7.1099541,15.63627 c -3.802e-4,0.143444 -0.01632,0.149091 -0.092727,0.03285 -0.1673857,-0.254655 -0.3166289,-0.632636 -0.3721737,-0.942587 -0.037252,-0.207871 -0.049898,-0.620964 -0.026072,-0.85162 0.066365,-0.642468 0.2655143,-1.229369 0.7054519,-2.078993 0.3260327,-0.629646 0.4054544,-0.824489 0.3360771,-0.824489 -0.048344,0 -0.4799679,0.741154 -0.7463809,1.281632 -0.4534833,0.919993 -0.6570343,1.646565 -0.6563571,2.342857 9.587e-4,0.985754 0.4039153,1.662113 1.3422281,2.252916 0.673006,0.423755 1.2120723,0.871437 1.5779647,1.310466 0.3393894,0.407227 0.5260315,0.818891 0.5085089,1.121585 -0.012546,0.21673 -0.1350744,0.411806 -0.3127347,0.497902 -0.085861,0.04161 -0.3228904,0.0906 -0.4383369,0.0906 h -0.064402 l 0.096441,0.110204 c 0.053043,0.06061 0.1140228,0.135918 0.1355118,0.167347 0.021489,0.03143 0.089706,0.115918 0.1515941,0.187755 0.061888,0.07184 0.1560304,0.196615 0.2092059,0.277286 0.1054449,0.159968 0.1345972,0.183179 0.44691,0.355849 0.5031467,0.278174 1.0862447,0.447095 1.6730107,0.484661 0.274296,0.01756 0.265274,0.01755 0.525414,6.95e-4 z M 11.832126,8.3119205 C 12.103647,8.2374851 12.411474,8.0878887 12.77551,7.8534591 13.018759,7.6968134 13.100964,7.651728 13.383338,7.5200953 13.488664,7.4709962 13.641,7.3855102 13.721863,7.3301265 13.889039,7.215625 14.101,7.0008028 14.167079,6.8788996 14.2628,6.7023128 14.281819,6.498414 14.216319,6.3510204 l -0.02539,-0.057143 -0.0097,0.045804 -0.0097,0.045804 -0.0611,-0.073258 C 13.997927,6.17747 13.800883,6.0641734 13.438721,5.9260676 13.024239,5.7680106 12.902477,5.7115187 12.700778,5.5836968 12.194107,5.262606 11.923359,5.1714723 11.469388,5.1692108 11.128608,5.167513 10.901837,5.2235796 10.653061,5.371038 10.517308,5.4515042 10.449974,5.5068103 10.244898,5.7062929 10.074468,5.872074 9.7622016,6.1130557 9.5095497,6.2737745 9.3106968,6.4002704 9.2366792,6.5445768 9.2538947,6.7722054 c 0.011067,0.1463268 0.058339,0.2509539 0.1854949,0.410552 0.1318847,0.1655337 0.2796801,0.2843345 0.6499744,0.5224624 0.03568,0.022945 0.142211,0.1064176 0.236735,0.1854935 0.30699,0.2568211 0.54826,0.4049073 0.725359,0.4452105 0.154276,0.035109 0.616932,0.020884 0.780668,-0.024003 z M 9.7858291,5.9193634 c 0.024987,-0.012922 0.074585,-0.04782 0.1102163,-0.077551 0.035631,-0.029732 0.081649,-0.065222 0.1022614,-0.078868 l 0.037477,-0.02481 -0.060079,-0.064986 C 9.7989417,5.4819489 9.7098952,5.0700958 9.778575,4.7613936 9.8086023,4.6264266 9.9031659,4.4636382 9.98713,4.4023724 c 0.054992,-0.040126 0.164492,-0.042419 0.236653,-0.00496 0.158156,0.082108 0.298666,0.4378764 0.298666,0.756215 0,0.08387 0.0033,0.1524904 0.0073,0.1524904 0.004,0 0.08297,-0.039797 0.17551,-0.088438 0.09254,-0.048641 0.200426,-0.097844 0.239752,-0.1093404 l 0.0715,-0.020902 -0.009,-0.286578 C 10.995071,4.4040666 10.930751,4.1584273 10.773007,3.9053368 10.569059,3.5781156 10.362892,3.4506217 10.059534,3.4641242 9.9333949,3.4697388 9.8968653,3.4780542 9.8243131,3.5176682 9.5913466,3.64487 9.4005696,3.9723053 9.3131066,4.3950647 c -0.029943,0.1447314 -0.033634,0.2046494 -0.026456,0.4294251 0.00993,0.3108552 0.054493,0.5131946 0.1582203,0.7183673 0.070216,0.1388871 0.2526602,0.4 0.2794875,0.4 0.00882,0 0.036483,-0.010572 0.061471,-0.023494 z M 13.9507,5.8208237 C 14.143223,5.5712784 14.271863,5.0628653 14.230681,4.7142857 14.18314,4.3118904 14.043202,3.99724 13.798403,3.7423069 13.558998,3.4929917 13.278389,3.3786232 12.961036,3.4010193 12.701373,3.4193433 12.436129,3.5538085 12.231266,3.770975 12.108028,3.9016131 12.047777,4.003552 11.97045,4.2122449 11.87351,4.4738679 11.830598,4.7793275 11.856913,5.0204082 l 0.01248,0.1142857 0.309154,0.1017303 c 0.170035,0.055951 0.31011,0.1000331 0.311279,0.097959 0.0012,-0.00207 -0.0028,-0.062547 -0.0089,-0.1343833 -0.01995,-0.23631 0.04384,-0.5284482 0.158068,-0.7238947 0.07029,-0.1202679 0.217364,-0.2579926 0.298978,-0.2799688 0.159528,-0.042957 0.317496,0.044839 0.437336,0.2430628 0.135601,0.2242954 0.187582,0.46526 0.153272,0.7105168 -0.03045,0.2176509 -0.07064,0.3136313 -0.175859,0.4200067 l -0.09117,0.092172 0.09576,0.027461 c 0.05267,0.015103 0.121475,0.042557 0.152903,0.061009 0.04899,0.028761 0.331351,0.1521515 0.36128,0.1578774 0.0056,0.00108 0.04129,-0.038258 0.07922,-0.087418 z"
     id="path2" />
  <path
     style="fill:#ffffff;stroke-width:0.0163265"
     d="M 11.077551,7.7610873 C 10.963762,7.7464951 10.744994,7.6857192 10.60666,7.6302689 10.440432,7.5636377 10.115249,7.3833759 10.010194,7.2996236 9.8121601,7.1417471 9.5727751,6.9107818 9.5426253,6.8485007 9.4543658,6.6661808 9.5631502,6.5901418 9.6760475,6.7552401 c 0.029115,0.042577 0.090038,0.1103375 0.1353833,0.1505785 0.045346,0.040241 0.1338753,0.122049 0.1967322,0.1817954 0.203838,0.1937495 0.568565,0.4092384 0.834865,0.4932561 0.261093,0.082375 0.496649,0.092404 0.789625,0.03362 0.371055,-0.07445 0.91145,-0.3188821 1.235833,-0.5589941 0.109504,-0.081056 0.258128,-0.1887384 0.330276,-0.239294 0.07215,-0.050556 0.162555,-0.129005 0.200902,-0.1743319 0.165221,-0.19529 0.186863,-0.2112389 0.240555,-0.177279 0.02083,0.013177 0.02052,0.022028 -0.0024,0.069138 -0.01449,0.029714 -0.06111,0.094434 -0.10361,0.143822 -0.268041,0.3114752 -1.357817,0.9150651 -1.88773,1.0455496 -0.133633,0.032905 -0.445908,0.053757 -0.568885,0.037987 z"
     id="path3" />
  <path
     style="fill:#ffffff;stroke-width:0.0163265"
     d="m 11.903035,5.7477446 c -0.02639,-0.017398 -0.07556,-0.036291 -0.109265,-0.041985 -0.106646,-0.018018 -0.126394,-0.088054 -0.035,-0.1241465 0.03332,-0.013159 0.07107,-0.012738 0.142605,0.00159 0.124232,0.024883 0.184951,0.056614 0.208896,0.109167 0.01624,0.035639 0.01447,0.045175 -0.01199,0.064521 -0.04421,0.032324 -0.139071,0.02788 -0.195239,-0.00915 z"
     id="path4" />
  <path
     style="fill:#ffffff;stroke-width:0.0163265"
     d="m 10.726216,5.7568906 c -0.02646,-0.019346 -0.02823,-0.028882 -0.01199,-0.064521 0.02351,-0.051611 0.0824,-0.082901 0.202643,-0.1076789 0.07662,-0.015788 0.102383,-0.014855 0.15102,0.00547 0.08517,0.035588 0.08032,0.0845 -0.01074,0.1082963 -0.03816,0.00997 -0.09656,0.032308 -0.129765,0.049635 -0.0709,0.036995 -0.157429,0.040781 -0.201162,0.0088 z"
     id="path5" />
</svg>
