<?xml version="1.0" encoding="UTF-8" standalone="no"?>
<svg
   role="img"
   viewBox="0 0 24 24"
   version="1.1"
   id="svg1"
   sodipodi:docname="youtube.svg"
   inkscape:version="1.3.2 (091e20ef0f, 2023-11-25)"
   xmlns:inkscape="http://www.inkscape.org/namespaces/inkscape"
   xmlns:sodipodi="http://sodipodi.sourceforge.net/DTD/sodipodi-0.dtd"
   xmlns="http://www.w3.org/2000/svg"
   xmlns:svg="http://www.w3.org/2000/svg">
  <defs
     id="defs1" />
  <sodipodi:namedview
     id="namedview1"
     pagecolor="#ffffff"
     bordercolor="#000000"
     borderopacity="0.25"
     inkscape:showpageshadow="2"
     inkscape:pageopacity="0.0"
     inkscape:pagecheckerboard="0"
     inkscape:deskcolor="#d1d1d1"
     inkscape:zoom="61.25"
     inkscape:cx="11.991837"
     inkscape:cy="12"
     inkscape:window-width="3200"
     inkscape:window-height="1665"
     inkscape:window-x="0"
     inkscape:window-y="90"
     inkscape:window-maximized="1"
     inkscape:current-layer="svg1" />
  <title
     id="title1">YouTube</title>
  <path
     d="M23.498 6.186a3.016 3.016 0 0 0-2.122-2.136C19.505 3.545 12 3.545 12 3.545s-7.505 0-9.377.505A3.017 3.017 0 0 0 .502 6.186C0 8.07 0 12 0 12s0 3.93.502 5.814a3.016 3.016 0 0 0 2.122 2.136c1.871.505 9.376.505 9.376.505s7.505 0 9.377-.505a3.015 3.015 0 0 0 2.122-2.136C24 15.93 24 12 24 12s0-3.93-.502-5.814zM9.545 15.568V8.432L15.818 12l-6.273 3.568z"
     id="path1" />
  <path
     style="fill:#ffffff;stroke-width:0.0163265"
     d="M 9.6408163,20.424286 C 5.6169669,20.34103 3.3047117,20.169445 2.4734694,19.892423 1.5215405,19.575179 0.80368392,18.821984 0.52263902,17.845558 0.21711628,16.784089 0.01779733,14.47598 0.01784039,12 0.01788345,9.52349 0.21717391,7.2157104 0.52263902,6.1544418 0.82741789,5.0955575 1.640472,4.306633 2.6997135,4.0419784 3.6670637,3.800283 6.0365523,3.6453463 9.8612245,3.5736997 c 1.1029985,-0.020662 4.2097265,-0.010604 5.2489795,0.016993 2.887977,0.076691 4.694962,0.19068 5.730612,0.3615013 0.490226,0.080858 0.707192,0.1430504 1.025052,0.293824 0.796945,0.3780241 1.364436,1.0500787 1.611494,1.9084235 0.303399,1.0540949 0.504267,3.3769321 0.504791,5.8373955 5.77e-4,2.717635 -0.233915,5.159011 -0.586573,6.107018 -0.341276,0.917409 -1.131156,1.618274 -2.095294,1.859166 -0.874033,0.218381 -2.831083,0.360807 -6.206408,0.451679 -0.809273,0.02179 -4.61326,0.03196 -5.4530617,0.01459 z M 12.740925,13.763265 C 14.438676,12.797959 15.827744,12.00449 15.827744,12 c 0,-0.0071 -6.0833778,-3.4713729 -6.2292622,-3.5473288 L 9.5428571,8.4237097 V 12 15.57629 l 0.055625,-0.02896 c 0.030594,-0.01593 1.4446929,-0.818758 3.1424429,-1.784064 z"
     id="path2" />
</svg>
